<svg width="134" height="134" viewBox="0 0 134 134" fill="none" xmlns="http://www.w3.org/2000/svg">
<g clip-path="url(#clip0_146_3)">
<path d="M25.8667 27.2C11.8667 38 11.0667 38.9334 5.46668 50C-0.799984 62.5334 -0.666651 66 6.00002 62.9334C7.86668 62 9.73335 61.3334 10 61.3334C10.4 61.3334 10.8 73.7334 10.9333 88.9334L11.3333 116.667L52.9334 117.067L94.5334 117.333L106 103.2L117.333 89.0667V75.6V62.1334L125.6 53.7334L133.733 45.4667L125.2 31.0667L116.533 16.6667L78.5334 16.2667L40.4 16L25.8667 27.2ZM100.667 29.3334L92.5334 37.3334L57.3334 37.0667L22.2667 36.6667L32.1334 29.0667L42 21.3334H75.3334H108.667L100.667 29.3334ZM117.733 28.9334C119.467 31.7334 122.4 36.5334 124.133 39.6L127.333 45.2L119.333 53.3334C114.933 57.7334 110.933 61.3334 110.4 61.3334C109.333 61.3334 105.733 56 99.8667 45.7334L96.6667 40.1334L104.667 32C109.067 27.6 113.067 24 113.6 24C114.133 24 116 26.2667 117.733 28.9334ZM90.6667 77.3334V112H53.3334H16V77.3334V42.6667H53.3334H90.6667V77.3334ZM104.533 63.7334C106.933 67.4667 108.8 69.3334 110.133 68.8C111.6 68.2667 112 69.8667 112 77.4667V86.9334L104 96.9334L96 107.067V78.5334C96 46.4 94.9334 48.2667 104.533 63.7334Z" fill="black"/>
<path d="M35 58H71" stroke="black" stroke-width="4" stroke-linecap="round"/>
</g>
<defs>
<clipPath id="clip0_146_3">
<rect width="133.333" height="133.333" fill="white"/>
</clipPath>
</defs>
</svg>
